<svg width="1200" height="360" viewBox="0 0 1200 360" fill="none" xmlns="http://www.w3.org/2000/svg">
  <defs>
    <linearGradient id="bg" x1="0" y1="0" x2="1" y2="1">
      <stop offset="0%" stop-color="#070d15" />
      <stop offset="100%" stop-color="#0c1524" />
    </linearGradient>
    <linearGradient id="panel" x1="0" y1="0" x2="1" y2="1">
      <stop offset="0%" stop-color="rgba(31,191,160,0.14)" />
      <stop offset="100%" stop-color="rgba(12,19,32,0.94)" />
    </linearGradient>
    <linearGradient id="cta" x1="0" y1="0" x2="1" y2="1">
      <stop offset="0%" stop-color="#2ed8b2" />
      <stop offset="100%" stop-color="#1fbfa0" />
    </linearGradient>
    <linearGradient id="ghost" x1="0" y1="0" x2="1" y2="1">
      <stop offset="0%" stop-color="rgba(46,216,178,0.08)" />
      <stop offset="100%" stop-color="rgba(31,191,160,0.22)" />
    </linearGradient>
    <radialGradient id="halo" cx="0.2" cy="0.2" r="1">
      <stop offset="0%" stop-color="#2ed8b2" stop-opacity="0.35" />
      <stop offset="100%" stop-color="rgba(7,12,20,0)" />
    </radialGradient>
  </defs>
  <rect width="1200" height="360" rx="26" fill="url(#bg)" />
  <rect x="12" y="12" width="1176" height="336" rx="24" fill="url(#panel)" stroke="rgba(71,102,136,0.35)" stroke-width="2" />
  <rect width="1200" height="360" rx="26" fill="url(#halo)" />

  <g opacity="0.3">
    <circle cx="180" cy="90" r="120" fill="#1fbfa0" />
    <circle cx="1040" cy="280" r="170" fill="#1fbfa0" />
  </g>

  <!-- Minimal fox mark -->
  <g transform="translate(860 70) scale(0.34)">
    <circle cx="512" cy="512" r="420" fill="#0c141f" stroke="#1fbfa0" stroke-width="18" />
    <polygon points="360,260 470,200 470,330" fill="#ff8c42" />
    <polygon points="564,200 664,260 564,330" fill="#ff8c42" />
    <polygon points="380,360 640,360 510,620" fill="#ffb56a" />
    <polygon points="410,340 510,320 610,340 510,520" fill="#ff8c42" />
    <polygon points="470,420 550,420 510,500" fill="#ffe1c2" />
    <circle cx="470" cy="420" r="12" fill="#0c141f" />
    <circle cx="550" cy="420" r="12" fill="#0c141f" />
    <circle cx="512" cy="512" r="320" fill="none" stroke="#1fbfa0" stroke-width="26" stroke-dasharray="680 320" stroke-dashoffset="160" />
  </g>

  <text x="240" y="120" fill="#2ed8b2" font-family="Inter, 'Segoe UI', sans-serif" font-size="18" font-weight="700" letter-spacing="0.4">Companion Betterfox</text>
  <text x="240" y="162" fill="#f4f7fb" font-family="Inter, 'Segoe UI', sans-serif" font-size="46" font-weight="800">Betterfox Companion</text>
  <text x="240" y="200" fill="#9cb2c9" font-family="Inter, 'Segoe UI', sans-serif" font-size="22" font-weight="500">Aggiorna user.js con backup chiari e zero fronzoli.</text>

  <g fill="none" stroke="#203045" stroke-width="1" stroke-opacity="0.4">
    <line x1="240" y1="224" x2="680" y2="224" />
  </g>

  <rect x="240" y="240" width="240" height="48" rx="14" fill="url(#cta)" />
  <text x="268" y="271" fill="#07100d" font-family="Inter, 'Segoe UI', sans-serif" font-size="18" font-weight="800">Scarica l'ultima build</text>

  <rect x="500" y="240" width="240" height="48" rx="14" fill="url(#ghost)" stroke="#2ed8b2" stroke-width="1.2" />
  <text x="528" y="271" fill="#cde7df" font-family="Inter, 'Segoe UI', sans-serif" font-size="18" font-weight="700">Backup profilo pronto</text>

  <text x="240" y="306" fill="#8ea2bb" font-family="Inter, 'Segoe UI', sans-serif" font-size="16" font-weight="600">Tema System/Light/Dark · Tray e icone pronte · Log chiari</text>
</svg>
